<svg width="11" height="11" viewBox="0 0 11 11" fill="none" xmlns="http://www.w3.org/2000/svg">
<g clip-path="url(#clip0_310_437)">
<path d="M0.458374 4.125V5.5V6.41667V9.625C0.458374 10.1292 0.868766 10.5417 1.37504 10.5417H5.50004H9.62504C10.1315 10.5417 10.5417 10.1292 10.5417 9.625V6.41667V5.5V4.125H0.458374Z" fill="#F39C12"/>
<path d="M0.458374 3.66663V5.04163V5.95829V9.16663C0.458374 9.67079 0.868766 10.0833 1.37504 10.0833H5.50004H9.62504C10.1315 10.0833 10.5417 9.67079 10.5417 9.16663V5.95829V5.04163V3.66663H0.458374Z" fill="#F1C40F"/>
<path d="M0.916667 2.75C0.410392 2.75 0 3.1625 0 3.66667V4.58333H11V3.66667C11 3.1625 10.5898 2.75 10.0833 2.75H9.16667H5.95833H5.04167H1.83333H0.916667Z" fill="#F1C40F"/>
<path d="M6.875 2.29163H4.125V10.5416H6.875V2.29163Z" fill="#E74C3C"/>
<path d="M3.61383 0.458267C3.15614 0.412434 2.7094 0.641578 2.46438 1.00824C2.10798 1.55824 2.32096 2.24576 2.93829 2.56659C3.1368 2.70409 3.34942 2.74993 3.56341 2.74993H3.66929H5.18188H5.81713H7.32917H7.43505C7.64909 2.74993 7.8668 2.70409 8.06526 2.56659C8.68263 2.24576 8.89071 1.55824 8.53413 1.00824C8.17801 0.458245 7.39196 0.2749 6.77459 0.595734C6.57613 0.6874 6.4203 0.824911 6.31121 1.00824H6.30113C6.28646 1.05408 6.27363 1.05411 6.2608 1.09995L5.49951 2.24578L4.73821 1.09995C4.72538 1.05411 4.71255 1.05408 4.69788 1.00824H4.6878C4.57844 0.824911 4.42742 0.6874 4.22887 0.595734C4.03596 0.504067 3.82187 0.458267 3.61383 0.458267ZM3.53821 1.00824C3.66219 1.00824 3.79047 1.05411 3.90625 1.09995C3.94507 1.09995 3.97999 1.14577 4.01208 1.14577C4.03467 1.1916 4.05342 1.19158 4.07258 1.23741H4.0877C4.09801 1.23741 4.10879 1.28323 4.11795 1.28323H4.13308H4.13812C4.14545 1.32907 4.15691 1.32911 4.16333 1.32911L4.69788 2.15408H3.62896H3.56846H3.54325H3.49283H3.46762C3.43829 2.15408 3.41074 2.15409 3.38191 2.10826C3.34094 2.10826 3.29978 2.10827 3.26091 2.06243C3.18378 2.06243 3.11484 1.97074 3.06429 1.92491C2.91272 1.74158 2.89031 1.5124 3.02396 1.28323C3.13533 1.14573 3.33154 1.00824 3.53821 1.00824ZM7.4653 1.00824C7.67201 1.00824 7.86817 1.14573 7.97955 1.28323C8.11338 1.5124 8.08588 1.74158 7.93417 1.92491C7.88376 1.97074 7.82005 2.06243 7.74259 2.06243C7.70409 2.10827 7.66284 2.10826 7.62159 2.10826C7.59317 2.15409 7.56017 2.15408 7.53084 2.15408H7.50563H7.45521H7.43001H7.36951H6.30113L6.83509 1.32911C6.84151 1.32911 6.85296 1.32907 6.8603 1.28323H6.86534C6.86442 1.28323 6.86671 1.28323 6.86534 1.28323H6.88046C6.88963 1.28323 6.90063 1.23741 6.91071 1.23741H6.92584C6.94509 1.19158 6.96892 1.1916 6.99138 1.14577C7.02392 1.14577 7.05876 1.09995 7.09726 1.09995C7.21321 1.05411 7.34155 1.00824 7.4653 1.00824Z" fill="#C0392B"/>
<path d="M10.5417 4.58325H0.458374V5.95825H10.5417V4.58325Z" fill="#F39C12"/>
<path d="M6.875 4.58325H4.125V5.95825H6.875V4.58325Z" fill="#C0392B"/>
<path d="M6.875 10.0833H4.125V10.5416H6.875V10.0833Z" fill="#C0392B"/>
<path d="M4.12504 4.58325H0.458374V5.04159H4.12504V4.58325Z" fill="#E67E22"/>
<path d="M10.5417 4.58325H6.875V5.04159H10.5417V4.58325Z" fill="#E67E22"/>
</g>
<defs>
<clipPath id="clip0_310_437">
<rect width="11" height="11" fill="white"/>
</clipPath>
</defs>
</svg>
