<svg width="236" height="47" viewBox="0 0 236 47" fill="none" xmlns="http://www.w3.org/2000/svg">
<path fill-rule="evenodd" clip-rule="evenodd" d="M26.257 6.99935C22.0311 7.79272 16.229 9.56386 12.9752 11.0538C9.96136 12.4337 8.82993 13.7352 8.82993 15.8225C8.82993 17.2855 13.9344 27.2326 17.2918 32.3115C21.7473 39.0517 24.4007 41.2977 26.0082 39.6889C26.9582 38.738 26.444 36.5202 23.4511 28.6643C20.3694 20.5751 20.0263 19.1997 20.7616 17.8845C20.9871 17.4808 23.6726 15.5935 26.729 13.6906C32.6073 10.0306 34.0402 8.5861 32.9075 7.46091C32.0177 6.57635 29.455 6.39839 26.257 6.99935ZM31.805 15.6618C30.2028 16.0872 28.0354 16.8613 26.9887 17.3827C24.3834 18.679 24.308 19.754 26.5131 24.1668C29.6918 30.5279 32.5752 34.2023 33.8146 33.472C34.4355 33.1056 34.0683 31.2674 32.4953 26.8727C31.6039 24.3825 30.928 22.0699 30.9927 21.7328C31.0577 21.3962 32.5543 20.1115 34.3187 18.8787C39.3839 15.3392 38.2906 13.9401 31.805 15.6618Z" fill="white"/>
<path fill-rule="evenodd" clip-rule="evenodd" d="M80.9243 11.8572C80.1176 12.6647 80.0783 14.202 80.8481 14.8415C81.6424 15.5015 83.9124 15.2107 84.4306 14.3824C84.7184 13.922 84.7292 13.3347 84.4639 12.5747C83.9879 11.2121 81.9763 10.8048 80.9243 11.8572ZM59 23.7587V35.4657L64.1173 35.2315C70.0105 34.9612 71.4855 34.6089 73.8299 32.9088C76.4564 31.0047 77.6488 28.0722 77.6568 23.5C77.6625 20.3377 77.5212 19.5946 76.5282 17.5715C74.3858 13.2046 71.9218 12.0942 64.318 12.0689L59 12.0513V23.7587ZM133.653 15.6666V17.6752H132.248C130.877 17.6752 130.844 17.7134 130.844 19.282C130.844 20.8507 130.877 20.8889 132.248 20.8889H133.653V26.4939C133.653 32.5806 133.915 33.6524 135.656 34.6816C136.712 35.3058 140.467 35.628 140.958 35.1359C141.076 35.0182 141.055 34.3465 140.911 33.6435C140.703 32.6264 140.399 32.3135 139.424 32.1142C137.279 31.6752 137.265 31.6366 137.265 26.0874V20.8889H139.071H140.878V19.282V17.6752H139.071H137.265V15.6666V13.6581H135.459H133.653V15.6666ZM62.6122 23.549V31.8334L66.1494 31.6639C70.2682 31.4671 71.7324 30.7002 73.0946 28.0276C74.2417 25.7769 74.0803 19.9304 72.8233 18.2062C71.4269 16.2901 68.8871 15.2649 65.5374 15.2649H62.6122V23.549ZM80.6735 26.3348V35.3966L82.3793 35.2729L84.085 35.1496L84.193 26.2115L84.301 17.2735H82.4872H80.6735V26.3348ZM86.8737 17.7861C86.7653 18.0681 86.726 22.09 86.7858 26.7241L86.8946 35.1496H88.7007H90.5068L90.7075 28.8825C90.8476 24.5119 91.0695 22.4214 91.442 21.9735C92.1785 21.0881 94.5601 20.3598 95.7458 20.6575C96.6793 20.8921 96.7279 20.8141 96.7279 19.0888V17.2735H95.1786C94.1925 17.2735 93.0976 17.6342 92.1684 18.2657L90.7075 19.2579V18.2657C90.7075 17.3566 90.5554 17.2735 88.8889 17.2735C87.7844 17.2735 86.9929 17.4747 86.8737 17.7861ZM101.344 18.0327C98.184 19.4921 96.6239 22.2904 96.6151 26.5136C96.6091 29.4397 97.4808 31.6008 99.4002 33.4166C100.935 34.8692 102.361 35.352 105.082 35.3416C107.86 35.3307 110.335 34.2855 111.518 32.6236C112.865 30.7303 112.732 30.5162 109.915 30.039C109.553 29.9775 108.794 30.4242 108.229 31.032C107.365 31.9608 106.873 32.1367 105.136 32.1367C103.321 32.1367 102.903 31.9704 101.705 30.7709C100.853 29.9181 100.34 29.013 100.34 28.3607V27.3162H106.617H112.893L112.63 25.0771C112.204 21.446 110.403 18.6742 107.84 17.7021C106.125 17.0517 103.138 17.204 101.344 18.0327ZM118.364 18.2087C117.205 18.8213 116.182 19.8111 115.397 21.0805C114.324 22.8135 114.198 23.3606 114.197 26.2718C114.195 31.2927 116.073 34.1642 120.029 35.1917C123.723 36.1502 127.512 34.6868 129.052 31.7073C130.054 29.767 129.845 29.3228 127.934 29.3404C126.457 29.3537 126.12 29.5288 125.419 30.646C124.708 31.7812 124.37 31.9499 122.602 32.054C120.808 32.1596 120.466 32.0399 119.415 30.9424C118.415 29.8976 118.213 29.3203 118.072 27.1045C117.883 24.1407 118.416 22.4567 119.914 21.2769C121.37 20.1312 123.794 20.224 125.042 21.4734C125.584 22.0157 126.027 22.6484 126.027 22.8793C126.027 23.1107 126.858 23.2991 127.877 23.2991C129.691 23.2991 129.721 23.2778 129.464 22.1944C128.475 18.0291 122.657 15.9394 118.364 18.2087ZM142.885 24.0021C142.886 31.586 143.209 32.8044 145.653 34.4385C147.885 35.9309 150.83 35.5324 153.019 33.4419L154.122 32.3882V33.8922V35.3966L155.828 35.2729L157.534 35.1496V26.3119V17.4743L155.628 17.3518L153.721 17.2293V23.3172V29.4051L152.308 30.8195C151.095 32.0339 150.712 32.1986 149.599 31.9849C148.886 31.8479 147.897 31.2739 147.4 30.7087C146.546 29.7385 146.497 29.3392 146.497 23.4775V17.2735H144.69H142.884L142.885 24.0021ZM160.236 26.2115L160.344 35.1496L162.049 35.2729L163.755 35.3966L163.756 29.6489C163.756 24.9803 163.888 23.6386 164.458 22.5001C165.286 20.8467 166.851 20.1501 168.463 20.7177C170.28 21.3573 170.566 22.5134 170.572 29.2472L170.578 35.3966L172.284 35.2729L173.99 35.1496L174.19 28.5852C174.383 22.288 174.43 21.9895 175.339 21.254C176.571 20.2566 178.233 20.2795 179.545 21.3119C180.588 22.133 180.593 22.1655 180.703 28.6431L180.813 35.1496H182.619H184.425L184.538 29.5461C184.673 22.7685 184.226 20.2204 182.633 18.6931C180.54 16.6862 175.957 16.9252 174.223 19.1318C173.45 20.1156 173.433 20.1176 173 19.3077C171.746 16.963 167.115 16.6123 164.94 18.6975L163.755 19.834V18.5537C163.755 17.3032 163.713 17.2735 161.941 17.2735H160.128L160.236 26.2115ZM102.093 21.199C101.203 21.9209 100.34 23.3365 100.34 24.076C100.34 24.3532 101.906 24.5043 104.782 24.5043C109.198 24.5043 109.223 24.499 108.965 23.6004C108.822 23.1035 108.175 22.1996 107.527 21.5919C106.115 20.2686 103.476 20.0782 102.093 21.199Z" fill="black"/>
<path fill-rule="evenodd" clip-rule="evenodd" d="M3.73225 1.99249C1.17076 3.55514 1.20408 3.27354 1.20568 23.5804C1.20689 41.1194 1.24381 42.0389 1.99074 43.2645C3.55163 45.827 3.27911 45.7948 23.4796 45.7948C43.6801 45.7948 43.4075 45.827 44.9684 43.2645C45.7154 42.0389 45.7523 41.1194 45.7535 23.5804C45.7551 3.27354 45.7884 3.55514 43.2269 1.99249C42.002 1.2445 41.0845 1.20795 23.4796 1.20795C5.87472 1.20795 4.95721 1.2445 3.73225 1.99249ZM26.257 6.9994C22.0311 7.79278 16.229 9.56391 12.9752 11.0539C9.96137 12.4337 8.82993 13.7353 8.82993 15.8225C8.82993 17.2856 13.9344 27.2327 17.2918 32.3115C21.7473 39.0518 24.4007 41.2977 26.0082 39.6889C26.9582 38.7381 26.444 36.5202 23.4511 28.6644C20.3695 20.5752 20.0263 19.1997 20.7616 17.8845C20.9871 17.4808 23.6726 15.5936 26.729 13.6907C32.6073 10.0307 34.0402 8.58615 32.9076 7.46096C32.0177 6.5764 29.455 6.39844 26.257 6.9994ZM195.061 23.7009V35.3504H196.867H198.673V30.9316V26.5128L200.981 26.5205L203.289 26.5285L205.52 30.8388L207.752 35.1496L209.835 35.2709C210.981 35.338 211.918 35.3227 211.918 35.238C211.918 35.1528 210.825 33.0454 209.488 30.5544L207.058 26.0252L208.676 24.6389C212.386 21.4609 211.629 14.7652 207.341 12.8162C206.008 12.21 204.694 12.0674 200.379 12.0601L195.061 12.0513V23.7009ZM212.974 12.5534C213.139 12.8298 214.685 15.3413 216.409 18.1352C218.133 20.9287 219.544 23.3526 219.544 23.5217C219.544 23.6908 218.009 26.3019 216.133 29.3248C214.256 32.3477 212.721 34.9399 212.721 35.0857C212.721 35.2311 213.629 35.3504 214.738 35.3504C216.701 35.3504 216.783 35.3026 217.848 33.5307C218.45 32.5296 219.687 30.5239 220.598 29.0737L222.254 26.4365L224.975 30.8935L227.697 35.3504H229.641C230.71 35.3504 231.585 35.1894 231.585 34.9925C231.585 34.7957 230.055 32.148 228.186 29.1091C226.316 26.0702 224.852 23.4743 224.932 23.3409C225.012 23.2076 226.542 20.7041 228.331 17.7773C230.121 14.8508 231.585 12.3654 231.585 12.2538C231.585 12.1425 230.637 12.0553 229.478 12.0601L227.371 12.069L224.784 16.4601L222.198 20.8515L219.574 16.4512L216.949 12.0513H214.812C213.209 12.0513 212.749 12.177 212.974 12.5534ZM31.805 15.6619C30.2028 16.0873 28.0354 16.8614 26.9887 17.3828C24.3835 18.6791 24.308 19.7541 26.5131 24.1669C29.6919 30.5279 32.5752 34.2024 33.8146 33.472C34.4355 33.1057 34.0683 31.2675 32.4954 26.8728C31.6039 24.3826 30.928 22.0699 30.9927 21.7329C31.0577 21.3963 32.5544 20.1116 34.3187 18.8787C39.3839 15.3393 38.2906 13.9401 31.805 15.6619ZM198.673 19.2821V23.2992H201.256C204.104 23.2992 205.761 22.8231 206.555 21.7771C207.1 21.0584 207.281 18.2091 206.853 17.0907C206.407 15.9294 204.461 15.265 201.503 15.265H198.673V19.2821Z" fill="#FC8404"/>
</svg>
